<svg xmlns="http://www.w3.org/2000/svg" aria-hidden="true" viewBox="0 0 32 32"><path fill="#41D1FF" d="M29.884 6.146 16.794 29.51a.667.667 0 0 1-1.163.004L2.137 6.148a.667.667 0 0 1 .59-.998l13.057-.233a.667.667 0 0 1 .012 0l13.5.231a.667.667 0 0 1 .588.998Z"/><path fill="#FFEA83" d="M22.264 1.658 12.604 3.55a.333.333 0 0 0-.27.309l-.594 10.034a.333.333 0 0 0 .408.344l2.69-.621a.333.333 0 0 1 .402.392l-.8 3.917a.333.333 0 0 0 .425.385l1.66-.504a.333.333 0 0 1 .425.386l-1.27 6.147c-.068.33.371.51.566.233l.13-.184 7.879-15.726a.333.333 0 0 0-.363-.476l-2.766.534a.333.333 0 0 1-.388-.42l1.806-6.26a.333.333 0 0 0-.489-.385Z"/></svg>
